<?xml version="1.0" encoding="utf-8"?>
<!-- Generator: Adobe Illustrator 20.1.0, SVG Export Plug-In . SVG Version: 6.00 Build 0)  -->
<svg version="1.1" id="Capa_1" xmlns="http://www.w3.org/2000/svg" xmlns:xlink="http://www.w3.org/1999/xlink" x="0px" y="0px"
	 viewBox="0 0 363 140.6" style="enable-background:new 0 0 363 140.6;" xml:space="preserve">
<style type="text/css">
	.st0{fill:#FFFFFF;}
</style>
<path class="st0" d="M132.3,59.5c0,0.3,0,0.8,0,1.5s0,1.2,0,1.3c0,1.5-0.1,2.8-0.2,3.8c-0.1,1.4-0.4,2.5-0.8,3.3
	c-0.4,0.9-1,1.4-1.8,1.4c-0.5,0-0.9-0.1-1.2-0.3c-0.4-0.3-0.8-0.5-1.1-0.7V48.9c0.1-0.1,0.5-0.2,1.1-0.6c0.4-0.2,0.8-0.3,1.2-0.3
	c0.7,0,1.3,0.5,1.8,1.6c0.3,0.8,0.6,2,0.8,3.6c0.1,1.2,0.2,2.5,0.2,3.9c0,0.4,0,0.8,0,1.2C132.3,58.7,132.3,59.1,132.3,59.5z"/>
<path class="st0" d="M173.2,70.8c-0.2,0.1-0.4,0.2-0.6,0.3c-0.3,0.1-0.5,0.1-0.7,0.1c-0.4,0-0.9-0.1-1.4-0.2c-0.2,0-0.4-0.1-0.7-0.2
	c-0.9-1.3-1.7-3.1-2.2-5.4c-1-3.8-1.5-5.7-1.5-5.8c-0.7-2.2-1.8-3.9-3.1-5.3c-0.3,0-0.5,0.1-0.7,0.3c-0.3,0.3-0.5,0.6-0.5,1.1v10.6
	c0,1.7-0.8,3-2.4,3.8c-1.2,0.7-2.5,1-3.9,1c-2.1,0-3.7-0.7-4.9-2.2c-0.8-1.1-1.6-2.7-2.2-5c-0.8-3.1-1.3-4.8-1.5-5.1
	c0-0.5-0.3-1.3-0.8-2.4c-0.7-1.4-1.4-2.1-2.3-2.1c-0.4,0-0.8,0.2-1,0.5c-0.3,0.3-0.4,0.8-0.4,1.3v13.6c-0.2,0.5-0.5,0.9-0.9,1.1
	c-0.3,0.1-0.6,0.2-1,0.2h-0.2h-0.6c-0.6,0-1-0.1-1.2-0.2c-0.2-0.1-0.4-0.4-0.5-0.7c-0.2-0.6-0.3-1.3-0.4-2.2
	c-0.1-0.8-0.1-1.8-0.1-2.8c0-0.8,0-1.6,0-2.3s0.1-1.5,0.1-2.3c0-0.4,0-0.9-0.1-1.6c-0.1-1.6-0.1-2.6-0.1-3.2c0-1.6,0.1-2.9,0.4-4
	c0.3-1.4,0.9-2.5,1.7-3.2c0.9-0.9,2.2-1.3,3.9-1.3c3.1,0,5.3,1.5,6.7,4.5c0.6,1.2,1.3,4,2.3,8.4c0.6,3,1.5,4.5,2.7,4.5
	c0.4,0,0.7-0.1,0.9-0.2c0.2-0.1,0.4-0.4,0.6-0.8V52.8c0-1.4,0.6-2.7,1.9-3.9c1.2-1.1,2.6-1.7,4-1.7c0.1,0,0.3,0,0.4,0
	c0.1,0,0.3,0,0.4,0c0.8,0,1.5,0.1,2,0.4c0.7,0.4,1.6,1.2,2.5,2.5c0.4,0.5,1,2,2,4.6c0.9,2.6,1.7,5,2.4,7.4c0.8,2.6,1.2,4.2,1.2,4.7
	c0.1,0.3,0.2,0.6,0.3,0.8c0.2,0.6,0.3,1.2,0.3,1.7c0,0.3,0,0.6-0.1,0.9C173.5,70.4,173.4,70.6,173.2,70.8z"/>
<path class="st0" d="M196.5,54.5c0,0.3,0,0.6,0,0.9s0,0.6,0,0.9c0,1-0.2,1.7-0.5,2.4c-0.5,0.9-1.3,1.6-2.4,2.2
	c-0.8,0.4-1.9,0.6-3.2,0.8c-1.3,0.1-2.6,0.2-3.9,0.4c-1.4,0.2-2.6,0.5-3.4,1c-0.7,0.3-1.1,0.8-1.4,1.4c-0.2,0.5-0.3,1.1-0.3,2
	c0,0.3,0,0.7,0,1s0,0.7,0,1c0,0.9-0.1,1.5-0.3,1.8c-0.3,0.5-0.9,0.7-1.8,0.7c-0.9,0-1.5-0.4-2-1.2c-0.4-0.8-0.7-2-0.7-3.4
	c0-2.9,0.5-5,1.4-6.5c0.8-1.2,1.9-2,3.4-2.4c0.9-0.3,2.3-0.4,4.1-0.4h1.3c1.3,0,2.3-0.1,2.8-0.3c0.8-0.3,1.1-1,1.1-2
	c0-0.8-0.3-1.4-1-1.7c-0.5-0.3-1-0.4-1.5-0.4h-8.4c-0.7,0-1.3-0.3-2-0.8c-0.6-0.5-0.9-1-0.9-1.5c0-1.1,0.8-1.8,2.3-2.3
	c1-0.3,2.4-0.4,4.2-0.4c0.3,0,0.6,0,0.9,0c0.3,0,0.5,0,0.7,0c2.6,0,4.3,0.1,5.1,0.2c2,0.3,3.4,0.9,4.4,1.8
	C195.9,50.4,196.5,52.2,196.5,54.5z"/>
<path class="st0" d="M222.2,69.3c0,0.8-0.2,1.4-0.5,1.7s-0.9,0.5-1.7,0.5c-0.3,0-1.2-0.4-2.9-1.2c-1.6-0.8-3.1-1.5-4.7-2.3
	c-1.7-0.8-2.7-1.2-3-1.2c-1,0-1.7,0.4-2.2,1.1c-0.4,0.7-0.8,1.4-1.1,2.1c-0.5,0.8-1.1,1.1-2,1.1c-0.8,0-1.4-0.4-1.7-1.2
	c-0.2-0.6-0.4-1.4-0.4-2.5c0-0.4,0-0.7,0-1s0-0.6,0-0.8c0-2.7,0.5-4.8,1.4-6.2c0.8-1.2,1.9-1.9,3.4-2.3c0.8-0.2,2.2-0.3,4-0.3
	c1.7,0,2.8-0.1,3.3-0.2c0.9-0.3,1.4-1,1.4-2.1c0-0.8-0.2-1.4-0.7-1.7c-0.3-0.3-0.8-0.4-1.5-0.4H205c-0.9,0-1.6-0.2-2-0.6
	s-0.5-1-0.5-1.9c0-0.8,0.4-1.4,1.2-1.8c0.9-0.5,2.5-0.8,4.6-0.8c0.3,0,0.7,0,1.1,0s0.7,0,0.8,0c2.8,0,4.9,0.1,6.3,0.4
	c1.8,0.4,3.1,1,3.9,2c0.9,1.1,1.3,2.6,1.3,4.7c0,1.5-0.5,2.9-1.6,4.3c-1.2,1.3-2.3,2.5-3.4,3.8c0,0.5,0.5,1.1,1.4,1.9
	c0.9,0.7,1.8,1.5,2.7,2.2C221.7,67.6,222.2,68.5,222.2,69.3z"/>
<path class="st0" d="M246.5,68.7c0,1-0.7,1.7-2.1,2.1c-1,0.3-2.3,0.4-3.9,0.4c-0.3,0-0.7,0-1.1,0s-0.6,0-0.7,0
	c-3.7,0-6.3-0.2-7.7-0.7c-1.6-0.6-2.6-1.7-3-3.3c-0.4-1.3-0.5-3.8-0.5-7.6s0.2-6.3,0.5-7.6c0.5-1.7,1.5-2.8,3-3.4s4.1-0.8,7.8-0.8
	c0.2,0,0.5,0,1,0s0.9,0,1.2,0c2.1,0,3.7,0.2,4.6,0.7c0.7,0.4,1.1,1,1.1,1.8c0,0.6-0.1,1-0.2,1.2c-0.2,0.3-0.5,0.6-1.1,0.9h-10
	c-0.4,0-0.9,0.3-1.4,0.9s-0.7,1.1-0.7,1.6s0.2,1,0.5,1.5s0.8,0.7,1.3,0.7h10c0.7,0.3,1.1,0.6,1.4,1.1c0.2,0.3,0.3,0.7,0.3,1.1v0.3
	c0,0.6-0.3,1.2-0.8,1.7c-0.6,0.5-1.2,0.8-2,0.8h-8.8c-0.5,0-1,0.2-1.3,0.6c-0.3,0.5-0.5,1-0.5,1.5c0,0.6,0.2,1.1,0.7,1.6
	c0.4,0.5,0.9,0.8,1.5,0.8h10c0.6,0.3,1,0.6,1.1,1C246.4,67.7,246.5,68.1,246.5,68.7z"/>
<path class="st0" d="M273.3,64.1c0,2-0.4,3.6-1.2,4.7c-0.6,0.9-1.6,1.6-2.9,2c-1,0.3-2.3,0.4-3.8,0.4c-0.5,0-1.1,0-1.8,0
	c-0.6,0-1.2,0-1.6,0c-0.1,0-0.5,0-1,0s-0.9,0-1.3,0c-2.1,0-3.6-0.2-4.5-0.7c-0.8-0.4-1.1-0.9-1.1-1.7c0-0.6,0-1,0.1-1.2
	c0.2-0.4,0.5-0.7,1.1-0.9h10c0.5,0,1-0.3,1.6-0.8c0.6-0.6,0.9-1,0.9-1.5c0-1.5-1.3-2.4-4-2.5c-4.2-0.2-6.6-0.5-7.4-0.8
	c-2.7-0.9-4-3.1-4-6.6c0-2.1,0.6-3.7,1.9-4.9c1.1-0.9,2.6-1.6,4.5-1.9c1.3-0.2,3-0.4,5.2-0.4c0.2,0,0.4,0,0.9,0c0.4,0,0.7,0,0.9,0
	c1.7,0,3,0.1,4,0.4c1.5,0.4,2.2,1.1,2.2,2.1c0,0.8-0.3,1.5-0.9,1.9c-0.5,0.4-1.2,0.6-1.9,0.6h-8.4c-0.5,0-0.9,0.2-1.4,0.7
	s-0.7,1-0.7,1.4c0,1.1,0.4,1.8,1.3,2.2c0.6,0.3,1.7,0.4,3.1,0.4c0.2,0,0.6,0,1.2,0c0.5,0,0.9,0,1.2,0c1.6,0,2.8,0.1,3.7,0.3
	c1.3,0.4,2.2,1,2.9,1.9C272.9,60.5,273.3,62.1,273.3,64.1z"/>
<path class="st0" d="M282.7,59.5c0,0.3,0,0.8,0,1.5s0,1.2,0,1.3c0,1.5-0.1,2.8-0.2,3.8c-0.1,1.4-0.4,2.5-0.8,3.3
	c-0.4,0.9-1,1.4-1.8,1.4c-0.5,0-0.9-0.1-1.2-0.3c-0.4-0.3-0.8-0.5-1.1-0.7V48.9c0.1-0.1,0.5-0.2,1.1-0.6c0.4-0.2,0.8-0.3,1.2-0.3
	c0.7,0,1.3,0.5,1.8,1.6c0.3,0.8,0.6,2,0.8,3.6c0.1,1.2,0.2,2.5,0.2,3.9c0,0.4,0,0.8,0,1.2C282.7,58.7,282.7,59.1,282.7,59.5z"/>
<path class="st0" d="M312.4,59.5c0,3.2-0.5,5.6-1.5,7.4c-0.9,1.6-2.3,2.8-4.3,3.4c-1.6,0.6-3.9,0.8-6.8,0.8c-0.2,0-0.5,0-1,0
	s-0.9,0-1.2,0c-1.8,0-3.1-0.1-4-0.3s-1.6-0.6-2.1-1c-0.8-0.6-1.8-2.1-2.8-4.4c-1.1-2.4-1.6-4.3-1.6-5.8c0-4.4,1.1-7.6,3.3-9.5
	c2.1-1.9,5.3-2.8,9.6-2.8c4.3,0,7.4,1.1,9.5,3.2C311.4,52.6,312.4,55.6,312.4,59.5z M307,59.4c0-2.4-0.6-4.2-1.8-5.3
	c-1.2-1.1-3-1.7-5.6-1.7c-2.5,0-4.3,0.5-5.3,1.4c-1.1,1-1.7,2.8-1.7,5.5c0,2.4,0.4,4.1,1.3,5.3c1.1,1.5,3.1,2.2,5.8,2.2
	c2.2,0,3.9-0.6,5.1-1.7C306.3,63.8,307,61.9,307,59.4z"/>
<path class="st0" d="M340.6,58.3c0,0.5,0,1.2,0,2.1c0,1,0,1.6,0,1.9c0,1.7-0.1,3.1-0.4,4.2c-0.4,1.5-1,2.6-1.8,3.4
	c-1,0.9-2.4,1.4-4.2,1.4c-0.6,0-1.3-0.2-2.1-0.5c-0.8-0.3-1.6-0.8-2.2-1.3c-0.4-0.4-0.9-0.8-1.3-1.2c-0.3-0.4-0.5-0.8-0.6-1.3
	c-0.2-0.7-0.7-2.3-1.3-4.8c-0.6-2.5-1.1-4.3-1.5-5.4c-0.6-1.7-1.3-2.5-2-2.5s-1.2,0.6-1.5,1.8c-0.2,0.8-0.3,1.6-0.3,2.6v10.4
	c0,0.6-0.3,1.1-0.8,1.4c-0.4,0.2-1,0.4-1.6,0.4c-0.7,0-1.2-0.1-1.5-0.3c-0.4-0.3-0.7-0.7-0.8-1.3c-0.1-0.7-0.2-1.5-0.2-2.4
	s0-2,0-3.3c0-0.6,0-1.1,0-1.7c0-0.6,0-1.2,0-1.8c0-0.2,0-0.9-0.1-2c-0.1-1.1-0.1-1.9-0.1-2.5c0-1.6,0.1-2.9,0.4-3.9
	c0.3-1.4,0.9-2.5,1.7-3.2c1-0.9,2.3-1.3,4-1.3c1.8,0,3.2,0.4,4.3,1.3c0.9,0.8,1.7,2,2.4,3.7c0.4,0.9,0.9,2.7,1.7,5.5
	c0.3,1,0.5,1.9,0.8,2.9c0.3,1.1,0.7,2,1.2,2.8c0.1,0.2,0.2,0.4,0.3,0.7c0.2,0.3,0.5,0.4,1,0.4c0.4,0,0.6-0.1,0.8-0.4
	c0.2-0.2,0.3-0.5,0.5-0.7V50c0-0.7,0.3-1.3,1-2c0.6-0.6,1.2-0.9,1.7-0.9c0.8,0,1.4,0.5,1.8,1.4c0.4,0.8,0.6,1.9,0.8,3.3
	c0.1,1,0.2,2.3,0.2,3.6c0,0.7,0,1.2,0,1.6C340.6,57.6,340.6,58,340.6,58.3z"/>
<ellipse transform="matrix(0.8984 -0.4392 0.4392 0.8984 19.1076 139.9021)" class="st0" cx="311.9" cy="28.7" rx="5.5" ry="5.5"/>
<ellipse transform="matrix(0.8984 -0.4392 0.4392 0.8984 11.5303 135.3071)" class="st0" cx="298.2" cy="42.7" rx="2.1" ry="2.1"/>
<g>
	<path class="st0" d="M248.9,102.6c0,1-0.8,1.7-2.3,2.1c-1,0.3-2.3,0.4-4,0.4c-0.3,0-0.6,0-0.9,0s-0.5,0-0.6,0c-4.6,0-8-0.8-10-2.5
		c-2.3-1.9-3.4-5.2-3.4-9.8c0-4.7,1.1-8,3.4-9.9c2-1.7,5.4-2.6,10-2.6c0.2,0,0.6,0,1.1,0s1,0,1.3,0c2.1,0,3.5,0.2,4.4,0.7
		c0.7,0.4,1,1,1,1.8c0,0.7-0.1,1.2-0.2,1.5c-0.3,0.6-0.8,0.9-1.5,0.9h-9.1c-1.2,0-2.2,0.5-3,1.6c-0.6,0.8-1.1,1.9-1.4,3.3
		c-0.2,1-0.3,1.8-0.3,2.5c0,1.8,0.4,3.4,1.2,4.8c1,1.8,2.5,2.7,4.5,2.7h8.1c0.8,0,1.3,0.3,1.5,0.9
		C248.8,101.4,248.9,101.9,248.9,102.6z"/>
	<path class="st0" d="M275.9,92.8c0,0.4,0,0.9,0,1.3c0,0.4,0,0.9,0,1.4c0,2.3-0.1,4.2-0.3,5.5c-0.2,1.4-0.5,2.6-0.8,3.7
		c-0.2,0.1-0.4,0.1-0.6,0.2c-0.5,0.1-0.9,0.2-1.3,0.2c-0.3,0-0.5,0-0.7-0.1c-0.2,0-0.4-0.1-0.6-0.3c-0.3-0.2-0.5-0.5-0.7-1
		c-0.1-0.4-0.3-0.9-0.4-1.3c-0.1-0.2-0.1-0.3-0.1-0.5s0-0.4,0-0.7c0-0.1,0-0.4,0-0.8c0-0.4,0-0.7,0-0.9c0-0.8-0.1-1.5-0.3-2
		c-0.2-0.7-0.7-1.3-1.4-1.8c-0.3-0.2-0.6-0.3-0.9-0.4c-0.3-0.1-0.6-0.1-1-0.1c-0.2,0-0.6,0-1,0s-0.7,0-0.9,0c-0.3,0-0.6,0-0.8,0
		c-0.2,0-0.5,0-0.7,0c-0.5,0-0.9,0.1-1.2,0.2c-0.3,0.2-1,0.6-2,1.3c-0.1,1.3-0.1,2.6-0.1,3.9c-0.2,1.7-0.7,3-1.6,3.9
		c-0.1,0-0.2,0.1-0.3,0.1c-0.5,0.1-1,0.2-1.4,0.2c-0.3,0-0.5,0-0.7-0.1c-0.2,0-0.3-0.1-0.5-0.2c-0.3-0.2-0.5-0.5-0.7-0.9
		s-0.3-0.7-0.4-0.8V92.6v-10c0.2-0.5,0.4-0.9,0.5-1.2s0.3-0.5,0.6-0.7c0.3-0.2,0.6-0.3,1.1-0.3c0.4,0,0.9,0.1,1.3,0.2
		c0.1,0,0.2,0,0.3,0.1c0.5,0.3,0.8,0.7,1,1.4c0.1,0.5,0.2,1.1,0.2,2c0,0.3,0,0.6,0,0.9c0,0.3,0,0.6,0,0.9c0,0.6,0,1.1,0.1,1.4
		c0.1,0.3,0.2,0.7,0.4,0.9c0.6,0.8,1.2,1.4,1.8,1.7c0.5,0.2,1.1,0.4,1.7,0.4c0.2,0,0.5,0,0.7,0s0.5,0,0.7,0c0.3,0,0.5,0,0.8,0
		s0.5,0,0.8,0c0.2,0,0.5,0,0.6,0c0.2,0,0.4-0.1,0.6-0.2c0.8-0.5,1.4-1.3,1.6-2.2c0.1-0.4,0.2-1.2,0.3-2.4c0.1-1.1,0.3-1.9,0.5-2.4
		s0.3-0.9,0.4-1.2c0.2-0.5,0.4-0.8,0.7-1.1c0.2-0.1,0.3-0.2,0.6-0.2c0.2-0.1,0.5-0.1,0.7-0.1c0.4,0,0.8,0.1,1.3,0.2
		c0.1,0,0.4,0.1,0.6,0.2c0.5,1.2,0.8,2.7,1,4.5c0.1,1.3,0.2,2.9,0.2,4.9v0.3v0.3v0.2c0,0.3,0,0.5,0,0.8s0,0.5,0,0.8v0.1H275.9z"/>
	<path class="st0" d="M286.4,92.8c0,0.3,0,0.8,0,1.6s0,1.2,0,1.4c0,1.6-0.1,2.9-0.2,4c-0.1,1.5-0.4,2.6-0.8,3.5
		c-0.5,1-1.1,1.5-1.9,1.5c-0.5,0-0.9-0.1-1.3-0.3c-0.5-0.3-0.9-0.5-1.2-0.7V81.6c0.1-0.1,0.5-0.3,1.2-0.6c0.4-0.2,0.9-0.3,1.3-0.3
		c0.8,0,1.4,0.5,1.9,1.6c0.4,0.9,0.6,2.1,0.8,3.8c0.1,1.2,0.2,2.6,0.2,4.1c0,0.4,0,0.8,0,1.3C286.4,91.9,286.4,92.3,286.4,92.8z"/>
	<path class="st0" d="M312.9,102.6c0,1-0.7,1.7-2,2.1c-0.9,0.3-2.1,0.4-3.5,0.4c-0.3,0-0.5,0-0.7,0s-0.5,0-0.7,0c-0.7,0-1.3,0-1.7,0
		c-0.5,0-0.9,0-1.3,0c-1.2,0-2.2-0.1-3-0.2c-1.1-0.2-2.1-0.6-3-1.2c-1.6-1-2.8-2.2-3.8-3.7c-0.9-1.5-1.4-3-1.4-4.4v-13
		c0-0.4,0.4-0.8,1.2-1.3c0.7-0.4,1.3-0.6,1.6-0.6c0.8,0,1.5,0.3,2,1c0.5,0.6,0.8,1.4,0.8,2.3v10.7c0,1.5,0.8,2.9,2.4,4
		c1.3,1,2.6,1.5,3.7,1.5h7.6c0.5,0,1,0.3,1.4,0.9C312.7,101.5,312.9,102,312.9,102.6z"/>
	<path class="st0" d="M338.7,102.5c0,1-0.8,1.8-2.3,2.2c-1,0.3-2.4,0.4-4.2,0.4c-0.3,0-0.7,0-1.2,0c-0.4,0-0.7,0-0.7,0
		c-4,0-6.7-0.3-8.1-0.8c-1.7-0.6-2.7-1.8-3.2-3.5c-0.4-1.4-0.6-4.1-0.6-8c0-4,0.2-6.7,0.6-8c0.5-1.8,1.5-3,3.1-3.6s4.3-0.9,8.2-0.9
		c0.2,0,0.5,0,1,0s1,0,1.3,0c2.3,0,3.9,0.3,4.8,0.8c0.8,0.4,1.2,1.1,1.2,1.9c0,0.6-0.1,1.1-0.2,1.3c-0.2,0.4-0.6,0.7-1.2,1h-10.6
		c-0.5,0-0.9,0.3-1.5,1c-0.5,0.6-0.8,1.2-0.8,1.7s0.2,1.1,0.5,1.6c0.4,0.5,0.8,0.7,1.3,0.7H337c0.7,0.3,1.2,0.7,1.5,1.1
		c0.2,0.3,0.3,0.7,0.3,1.2v0.3c0,0.7-0.3,1.3-0.9,1.8s-1.3,0.8-2.1,0.8h-9.3c-0.6,0-1,0.2-1.3,0.7c-0.4,0.5-0.6,1-0.6,1.6
		s0.2,1.2,0.7,1.7s1,0.8,1.5,0.8h10.6c0.6,0.3,1,0.6,1.2,1C338.7,101.4,338.7,101.9,338.7,102.5z"/>
	<ellipse transform="matrix(0.8984 -0.4392 0.4392 0.8984 15.0283 136.5016)" class="st0" cx="302.5" cy="35.8" rx="3.3" ry="3.3"/>
</g>
<g>
	<path class="st0" d="M92.2,117.3c0,0-5.6,2.1-6.9-4.5c-0.9-4.8,6.7-6.2,6.7-6.2l6.9-2.2l-1.3,9L92.2,117.3z"/>
	<path class="st0" d="M62.2,30.4c0,0-0.6-0.1-1.5-0.4l0,0c0,0-3.5-16.4-16.9-19.3c0,0,11.7,6.4,14.8,18.7h-0.1
		c-6-2.1-17.4-7.8-19.1-20.9C60.3,7.7,62.2,30.4,62.2,30.4z"/>
	<path class="st0" d="M63,30.4c0,0,0-0.6,0-1.5l0,0c0,0,15.1-7.4,14.7-21.1c0,0-3.3,12.9-14.4,19c0,0,0-0.1-0.1-0.1
		C63.7,20.3,66.5,7.9,78.7,3C84.5,23,63,30.4,63,30.4z"/>
	<path class="st0" d="M69.5,90.6c0,0-23-12.2-46.4,13.8c6,17,28.9,28.5,28.9,28.5S43.8,93.5,69.5,90.6z"/>
	<path class="st0" d="M70.5,91.3c0,0-21.9,3-1.5,46.4c18.8,4.5,36.5-4.9,36.5-4.9S67.3,114.7,70.5,91.3z"/>
	<g>
		<g>
			<path class="st0" d="M31.6,67.2c0.5-6,4.2-12.5,11.1-18.7c-6.2,7.5-8.4,14.2-8,19.7c0.8,0.3,1.6,0.5,2.3,0.8
				c-0.3-2.4-0.2-5,0.6-7.5c1.3-4.6,5-11.3,15.3-16.8c3.9-1.9,8.1-2.9,12.3-2.9c8.2,0,14.6,3,18.5,9c9.8,15.2-5.1,32.1-5.1,32.1
				l-7.1,7.9c0,0,10.4-5.4,12.9-7.2c5.6-4.3,11.4-11.9,11.1-24.6c-0.2-7.7-4.1-15.4-9.7-20.8c-5.7-5.5-13.3-7.7-21.3-7.7
				C53.6,30.4,42,35.6,34.1,44c-4.9,5.2-9.4,13-10,21.5C26,65.9,28.8,66.5,31.6,67.2z"/>
			<path class="st0" d="M76.2,83.8c-1.4,0.1-5.4,0.3-6.7,0.3c-3,0-5.8-0.1-8.3-0.3c-0.6-0.1-1.3-0.1-2.1-0.2c-0.2,0-0.3,0-0.6-0.1
				l4.3,3c3.7,0.1,7.8,0.1,10.5,0.1L76.2,83.8z"/>
		</g>
		<path class="st0" d="M138.6,87.5c-2.3-4.9-10.1-7.7-16.1-7.5c-5.1,0.1-11.9,0.8-19.7,1.7c-4.3,0.4-11.7,1.2-16.2,1.6
			c-0.7,0.7-2.5,2.3-5.1,3.3c13.9-1.1,31.3-3.5,38.1-3.9c14.6-0.8,18,7,13.4,12.4c-1.3,1.6-33.1,16.3-33.1,16.3
			c4.2-4.3-0.9-15.8-14.7-16.2c-4.9-0.1-9.5-0.4-13.7-0.9c0.1,1.2,0.2,2.7,0.6,4c0.7,0.1,1.3,0.1,2,0.1c9.3,0.6,16.6,1.1,21.4,6.3
			c1.1,1.2,2,3.3,1.6,5.4c-0.3,2-2.7,5.9-4.9,7.1c0,0,40.7-16.7,45-21.9C139.3,92.9,139.8,90,138.6,87.5z"/>
	</g>
	<path class="st0" d="M68.4,89.2c0,0-25.4-9.6-50.9,3.2c-4.4-10.1-0.8-25.7-0.8-25.7S47.3,70.5,68.4,89.2z"/>
</g>
</svg>
