<?xml version="1.0" encoding="utf-8"?>
<!-- Generator: Adobe Illustrator 21.0.0, SVG Export Plug-In . SVG Version: 6.00 Build 0)  -->
<svg version="1.1" id="Capa_1" xmlns="http://www.w3.org/2000/svg" xmlns:xlink="http://www.w3.org/1999/xlink" x="0px" y="0px"
	 viewBox="0 0 424.4 243.8" style="enable-background:new 0 0 424.4 243.8;" xml:space="preserve">
<style type="text/css">
	.st0{fill:#7B4D00;}
	.st1{fill:#84AF38;}
	.st2{fill:#009045;}
	.st3{fill:#FEEE00;}
	.st4{fill:#009BDB;}
	.st5{fill:#DACD10;}
	.st6{fill:#FF9100;}
	.st7{fill:#DD009F;}
</style>
<g>
	<path class="st0" d="M164,205.1c0,0-10.1,3.8-12.4-8c-1.6-8.6,12.1-11.1,12.1-11.1l12.3-4l-2.4,16.2L164,205.1z"/>
	<path class="st1" d="M110.3,49.1c0,0-1-0.2-2.7-0.7l0,0c0,0-6.3-29.4-30.3-34.7c0,0,20.9,11.5,26.6,33.5h-0.1
		c0,0-31.2-14-34.2-37.5C106.9,8.5,110.3,49.1,110.3,49.1z"/>
	<path class="st1" d="M111.7,49.1c0,0,0-1,0-2.7l0,0c0,0,27-13.3,26.3-37.9c0,0-6,23.1-25.9,34c0,0,0-0.1-0.1-0.1
		c1-11.3,5.9-33.7,27.9-42.4C150.2,35.9,111.7,49.1,111.7,49.1z"/>
	<path class="st2" d="M189.8,108c0,0.3,0,0.8,0,1.5s0,1.2,0,1.3c0,1.5-0.1,2.8-0.2,3.8c-0.1,1.4-0.4,2.5-0.8,3.3
		c-0.4,0.9-1,1.4-1.8,1.4c-0.5,0-0.9-0.1-1.2-0.3c-0.4-0.3-0.8-0.5-1.1-0.7V97.4c0.1-0.1,0.5-0.2,1.1-0.6c0.4-0.2,0.8-0.3,1.2-0.3
		c0.7,0,1.3,0.5,1.8,1.6c0.3,0.8,0.6,2,0.8,3.6c0.1,1.2,0.2,2.5,0.2,3.9c0,0.4,0,0.8,0,1.2C189.8,107.2,189.8,107.6,189.8,108z"/>
	<path class="st2" d="M230.7,119.3c-0.2,0.1-0.4,0.2-0.6,0.3c-0.3,0.1-0.5,0.1-0.7,0.1c-0.4,0-0.9-0.1-1.4-0.2
		c-0.2,0-0.4-0.1-0.7-0.2c-0.9-1.3-1.7-3.1-2.2-5.4c-1-3.8-1.5-5.7-1.5-5.8c-0.7-2.2-1.8-3.9-3.1-5.3c-0.3,0-0.5,0.1-0.7,0.3
		c-0.3,0.3-0.5,0.6-0.5,1.1v10.6c0,1.7-0.8,3-2.4,3.8c-1.2,0.7-2.5,1-3.9,1c-2.1,0-3.7-0.7-4.9-2.2c-0.8-1.1-1.6-2.7-2.2-5
		c-0.8-3.1-1.3-4.8-1.5-5.1c0-0.5-0.3-1.3-0.8-2.4c-0.7-1.4-1.4-2.1-2.3-2.1c-0.4,0-0.8,0.2-1,0.5c-0.3,0.3-0.4,0.8-0.4,1.3v13.6
		c-0.2,0.5-0.5,0.9-0.9,1.1c-0.3,0.1-0.6,0.2-1,0.2h-0.2h-0.6c-0.6,0-1-0.1-1.2-0.2s-0.4-0.4-0.5-0.7c-0.2-0.6-0.3-1.3-0.4-2.2
		c-0.1-0.8-0.1-1.8-0.1-2.8c0-0.8,0-1.6,0-2.3s0.1-1.5,0.1-2.3c0-0.4,0-0.9-0.1-1.6c-0.1-1.6-0.1-2.6-0.1-3.2c0-1.6,0.1-2.9,0.4-4
		c0.3-1.4,0.9-2.5,1.7-3.2c0.9-0.9,2.2-1.3,3.9-1.3c3.1,0,5.3,1.5,6.7,4.5c0.6,1.2,1.3,4,2.3,8.4c0.6,3,1.5,4.5,2.7,4.5
		c0.4,0,0.7-0.1,0.9-0.2s0.4-0.4,0.6-0.8v-10.8c0-1.4,0.6-2.7,1.9-3.9c1.2-1.1,2.6-1.7,4-1.7c0.1,0,0.3,0,0.4,0c0.1,0,0.3,0,0.4,0
		c0.8,0,1.5,0.1,2,0.4c0.7,0.4,1.6,1.2,2.5,2.5c0.4,0.5,1,2,2,4.6c0.9,2.6,1.7,5,2.4,7.4c0.8,2.6,1.2,4.2,1.2,4.7
		c0.1,0.3,0.2,0.6,0.3,0.8c0.2,0.6,0.3,1.2,0.3,1.7c0,0.3,0,0.6-0.1,0.9C231,118.9,230.9,119.1,230.7,119.3z"/>
	<path class="st2" d="M254,103c0,0.3,0,0.6,0,0.9s0,0.6,0,0.9c0,1-0.2,1.7-0.5,2.4c-0.5,0.9-1.3,1.6-2.4,2.2
		c-0.8,0.4-1.9,0.6-3.2,0.8c-1.3,0.1-2.6,0.2-3.9,0.4c-1.4,0.2-2.6,0.5-3.4,1c-0.7,0.3-1.1,0.8-1.4,1.4c-0.2,0.5-0.3,1.1-0.3,2
		c0,0.3,0,0.7,0,1s0,0.7,0,1c0,0.9-0.1,1.5-0.3,1.8c-0.3,0.5-0.9,0.7-1.8,0.7c-0.9,0-1.5-0.4-2-1.2c-0.4-0.8-0.7-2-0.7-3.4
		c0-2.9,0.5-5,1.4-6.5c0.8-1.2,1.9-2,3.4-2.4c0.9-0.3,2.3-0.4,4.1-0.4h1.3c1.3,0,2.3-0.1,2.8-0.3c0.8-0.3,1.1-1,1.1-2
		c0-0.8-0.3-1.4-1-1.7c-0.5-0.3-1-0.4-1.5-0.4h-8.4c-0.7,0-1.3-0.3-2-0.8c-0.6-0.5-0.9-1-0.9-1.5c0-1.1,0.8-1.8,2.3-2.3
		c1-0.3,2.4-0.4,4.2-0.4c0.3,0,0.6,0,0.9,0c0.3,0,0.5,0,0.7,0c2.6,0,4.3,0.1,5.1,0.2c2,0.3,3.4,0.9,4.4,1.8
		C253.4,98.9,254,100.7,254,103z"/>
	<path class="st2" d="M279.7,117.8c0,0.8-0.2,1.4-0.5,1.7c-0.3,0.3-0.9,0.5-1.7,0.5c-0.3,0-1.2-0.4-2.9-1.2
		c-1.6-0.8-3.1-1.5-4.7-2.3c-1.7-0.8-2.7-1.2-3-1.2c-1,0-1.7,0.4-2.2,1.1c-0.4,0.7-0.8,1.4-1.1,2.1c-0.5,0.8-1.1,1.1-2,1.1
		c-0.8,0-1.4-0.4-1.7-1.2c-0.2-0.6-0.4-1.4-0.4-2.5c0-0.4,0-0.7,0-1s0-0.6,0-0.8c0-2.7,0.5-4.8,1.4-6.2c0.8-1.2,1.9-1.9,3.4-2.3
		c0.8-0.2,2.2-0.3,4-0.3c1.7,0,2.8-0.1,3.3-0.2c0.9-0.3,1.4-1,1.4-2.1c0-0.8-0.2-1.4-0.7-1.7c-0.3-0.3-0.8-0.4-1.5-0.4h-8.3
		c-0.9,0-1.6-0.2-2-0.6s-0.5-1-0.5-1.9c0-0.8,0.4-1.4,1.2-1.8c0.9-0.5,2.5-0.8,4.6-0.8c0.3,0,0.7,0,1.1,0c0.4,0,0.7,0,0.8,0
		c2.8,0,4.9,0.1,6.3,0.4c1.8,0.4,3.1,1,3.9,2c0.9,1.1,1.3,2.6,1.3,4.7c0,1.5-0.5,2.9-1.6,4.3c-1.2,1.3-2.3,2.5-3.4,3.8
		c0,0.5,0.5,1.1,1.4,1.9c0.9,0.7,1.8,1.5,2.7,2.2C279.2,116.1,279.7,117,279.7,117.8z"/>
	<path class="st2" d="M304,117.2c0,1-0.7,1.7-2.1,2.1c-1,0.3-2.3,0.4-3.9,0.4c-0.3,0-0.7,0-1.1,0s-0.6,0-0.7,0
		c-3.7,0-6.3-0.2-7.7-0.7c-1.6-0.6-2.6-1.7-3-3.3c-0.4-1.3-0.5-3.8-0.5-7.6s0.2-6.3,0.5-7.6c0.5-1.7,1.5-2.8,3-3.4s4.1-0.8,7.8-0.8
		c0.2,0,0.5,0,1,0s0.9,0,1.2,0c2.1,0,3.7,0.2,4.6,0.7c0.7,0.4,1.1,1,1.1,1.8c0,0.6-0.1,1-0.2,1.2c-0.2,0.3-0.5,0.6-1.1,0.9h-10
		c-0.4,0-0.9,0.3-1.4,0.9s-0.7,1.1-0.7,1.6s0.2,1,0.5,1.5s0.8,0.7,1.3,0.7h10c0.7,0.3,1.1,0.6,1.4,1.1c0.2,0.3,0.3,0.7,0.3,1.1v0.3
		c0,0.6-0.3,1.2-0.8,1.7c-0.6,0.5-1.2,0.8-2,0.8h-8.8c-0.5,0-1,0.2-1.3,0.6c-0.3,0.5-0.5,1-0.5,1.5c0,0.6,0.2,1.1,0.7,1.6
		c0.4,0.5,0.9,0.8,1.5,0.8h10c0.6,0.3,1,0.6,1.1,1C303.9,116.2,304,116.6,304,117.2z"/>
	<path class="st2" d="M330.8,112.6c0,2-0.4,3.6-1.2,4.7c-0.6,0.9-1.6,1.6-2.9,2c-1,0.3-2.3,0.4-3.8,0.4c-0.5,0-1.1,0-1.8,0
		c-0.6,0-1.2,0-1.6,0c-0.1,0-0.5,0-1,0s-0.9,0-1.3,0c-2.1,0-3.6-0.2-4.5-0.7c-0.8-0.4-1.1-0.9-1.1-1.7c0-0.6,0-1,0.1-1.2
		c0.2-0.4,0.5-0.7,1.1-0.9h10c0.5,0,1-0.3,1.6-0.8c0.6-0.6,0.9-1,0.9-1.5c0-1.5-1.3-2.4-4-2.5c-4.2-0.2-6.6-0.5-7.4-0.8
		c-2.7-0.9-4-3.1-4-6.6c0-2.1,0.6-3.7,1.9-4.9c1.1-0.9,2.6-1.6,4.5-1.9c1.3-0.2,3-0.4,5.2-0.4c0.2,0,0.4,0,0.9,0c0.4,0,0.7,0,0.9,0
		c1.7,0,3,0.1,4,0.4c1.5,0.4,2.2,1.1,2.2,2.1c0,0.8-0.3,1.5-0.9,1.9c-0.5,0.4-1.2,0.6-1.9,0.6h-8.4c-0.5,0-0.9,0.2-1.4,0.7
		s-0.7,1-0.7,1.4c0,1.1,0.4,1.8,1.3,2.2c0.6,0.3,1.7,0.4,3.1,0.4c0.2,0,0.6,0,1.2,0c0.5,0,0.9,0,1.2,0c1.6,0,2.8,0.1,3.7,0.3
		c1.3,0.4,2.2,1,2.9,1.9C330.4,109,330.8,110.6,330.8,112.6z"/>
	<path class="st2" d="M340.2,108c0,0.3,0,0.8,0,1.5s0,1.2,0,1.3c0,1.5-0.1,2.8-0.2,3.8c-0.1,1.4-0.4,2.5-0.8,3.3
		c-0.4,0.9-1,1.4-1.8,1.4c-0.5,0-0.9-0.1-1.2-0.3c-0.4-0.3-0.8-0.5-1.1-0.7V97.4c0.1-0.1,0.5-0.2,1.1-0.6c0.4-0.2,0.8-0.3,1.2-0.3
		c0.7,0,1.3,0.5,1.8,1.6c0.3,0.8,0.6,2,0.8,3.6c0.1,1.2,0.2,2.5,0.2,3.9c0,0.4,0,0.8,0,1.2C340.2,107.2,340.2,107.6,340.2,108z"/>
	<path class="st2" d="M369.9,108c0,3.2-0.5,5.6-1.5,7.4c-0.9,1.6-2.3,2.8-4.3,3.4c-1.6,0.6-3.9,0.8-6.8,0.8c-0.2,0-0.5,0-1,0
		s-0.9,0-1.2,0c-1.8,0-3.1-0.1-4-0.3s-1.6-0.6-2.1-1c-0.8-0.6-1.8-2.1-2.8-4.4c-1.1-2.4-1.6-4.3-1.6-5.8c0-4.4,1.1-7.6,3.3-9.5
		c2.1-1.9,5.3-2.8,9.6-2.8c4.3,0,7.4,1.1,9.5,3.2C368.9,101.1,369.9,104.1,369.9,108z M364.5,107.9c0-2.4-0.6-4.2-1.8-5.3
		c-1.2-1.1-3-1.7-5.6-1.7c-2.5,0-4.3,0.5-5.3,1.4c-1.1,1-1.7,2.8-1.7,5.5c0,2.4,0.4,4.1,1.3,5.3c1.1,1.5,3.1,2.2,5.8,2.2
		c2.2,0,3.9-0.6,5.1-1.7C363.8,112.3,364.5,110.4,364.5,107.9z"/>
	<path class="st2" d="M398.1,106.8c0,0.5,0,1.2,0,2.1c0,1,0,1.6,0,1.9c0,1.7-0.1,3.1-0.4,4.2c-0.4,1.5-1,2.6-1.8,3.4
		c-1,0.9-2.4,1.4-4.2,1.4c-0.6,0-1.3-0.2-2.1-0.5c-0.8-0.3-1.6-0.8-2.2-1.3c-0.4-0.4-0.9-0.8-1.3-1.2c-0.3-0.4-0.5-0.8-0.6-1.3
		c-0.2-0.7-0.7-2.3-1.3-4.8c-0.6-2.5-1.1-4.3-1.5-5.4c-0.6-1.7-1.3-2.5-2-2.5s-1.2,0.6-1.5,1.8c-0.2,0.8-0.3,1.6-0.3,2.6v10.4
		c0,0.6-0.3,1.1-0.8,1.4c-0.4,0.2-1,0.4-1.6,0.4c-0.7,0-1.2-0.1-1.5-0.3c-0.4-0.3-0.7-0.7-0.8-1.3c-0.1-0.7-0.2-1.5-0.2-2.4
		s0-2,0-3.3c0-0.6,0-1.1,0-1.7s0-1.2,0-1.8c0-0.2,0-0.9-0.1-2s-0.1-1.9-0.1-2.5c0-1.6,0.1-2.9,0.4-3.9c0.3-1.4,0.9-2.5,1.7-3.2
		c1-0.9,2.3-1.3,4-1.3c1.8,0,3.2,0.4,4.3,1.3c0.9,0.8,1.7,2,2.4,3.7c0.4,0.9,0.9,2.7,1.7,5.5c0.3,1,0.5,1.9,0.8,2.9
		c0.3,1.1,0.7,2,1.2,2.8c0.1,0.2,0.2,0.4,0.3,0.7c0.2,0.3,0.5,0.4,1,0.4c0.4,0,0.6-0.1,0.8-0.4c0.2-0.2,0.3-0.5,0.5-0.7V98.5
		c0-0.7,0.3-1.3,1-2c0.6-0.6,1.2-0.9,1.7-0.9c0.8,0,1.4,0.5,1.8,1.4c0.4,0.8,0.6,1.9,0.8,3.3c0.1,1,0.2,2.3,0.2,3.6
		c0,0.7,0,1.2,0,1.6C398.1,106.1,398.1,106.5,398.1,106.8z"/>
	<path class="st3" d="M123.4,157.2c0,0-41.3-21.9-83.2,24.7C50.9,212.4,92,233.1,92,233.1S77.3,162.4,123.4,157.2z"/>
	<path class="st4" d="M125.1,158.4c0,0-39.3,5.3-2.7,83.2c33.8,8.1,65.4-8.8,65.4-8.8S119.3,200.3,125.1,158.4z"/>
	<ellipse transform="matrix(0.8984 -0.4392 0.4392 0.8984 3.6207 170.0667)" class="st4" cx="369.4" cy="77.2" rx="5.5" ry="5.5"/>
	<ellipse transform="matrix(0.8984 -0.4392 0.4392 0.8984 -3.9645 165.485)" class="st5" cx="355.7" cy="91.3" rx="2.1" ry="2.1"/>
	<g>
		<g>
			<path class="st6" d="M55.3,115.2c0.9-10.8,7.5-22.4,20-33.6C64.2,95.1,60.3,107,61,116.9c1.5,0.5,2.8,0.9,4.1,1.4
				c-0.6-4.3-0.3-8.9,1-13.5c2.4-8.3,9-20.2,27.5-30.1c7-3.4,14.6-5.2,22-5.2c14.7,0,26.2,5.4,33.1,16.2
				c17.5,27.3-9.2,57.5-9.2,57.5l-12.7,14.1c0,0,18.6-9.6,23.1-12.9c10-7.8,20.4-21.4,19.9-44.2c-0.3-13.9-7.4-27.7-17.4-37.3
				c-10.3-9.9-23.8-13.8-38.2-13.8c-19.4,0-40.2,9.4-54.3,24.5c-8.7,9.3-16.9,23.4-18,38.5C45.3,112.8,50.3,113.9,55.3,115.2z"/>
			<path class="st6" d="M135.3,144.9c-2.5,0.1-9.6,0.5-12,0.5c-5.4,0-10.4-0.2-14.8-0.6c-1.1-0.1-2.4-0.2-3.7-0.3
				c-0.3,0-0.6,0-1-0.1l7.7,5.4c6.7,0.1,14,0.1,18.8,0.1L135.3,144.9z"/>
		</g>
		<path class="st6" d="M247.2,151.5c-4.1-8.7-18.1-13.8-28.9-13.5c-9.2,0.2-21.3,1.5-35.3,3.1c-7.7,0.8-20.9,2.2-29.1,2.9
			c-1.3,1.2-4.4,4.1-9.1,5.9c25-1.9,56.1-6.3,68.3-7c26.1-1.4,32.2,12.6,24.1,22.3c-2.4,2.9-59.4,29.3-59.4,29.3
			c7.5-7.8-1.6-28.4-26.3-29c-8.8-0.2-17-0.7-24.6-1.6c0.1,2.1,0.4,4.9,1,7.2c1.2,0.1,2.4,0.2,3.6,0.2c16.7,1.1,29.8,1.9,38.4,11.3
			c1.9,2.1,3.6,5.9,2.9,9.7c-0.6,3.5-4.8,10.6-8.7,12.8c0,0,73-30,80.7-39.3C248.5,161.2,249.4,156.1,247.2,151.5z"/>
	</g>
	<g>
		<path class="st7" d="M306.4,151.1c0,1-0.8,1.7-2.3,2.1c-1,0.3-2.3,0.4-4,0.4c-0.3,0-0.6,0-0.9,0s-0.5,0-0.6,0c-4.6,0-8-0.8-10-2.5
			c-2.3-1.9-3.4-5.2-3.4-9.8c0-4.7,1.1-8,3.4-9.9c2-1.7,5.4-2.6,10-2.6c0.2,0,0.6,0,1.1,0s1,0,1.3,0c2.1,0,3.5,0.2,4.4,0.7
			c0.7,0.4,1,1,1,1.8c0,0.7-0.1,1.2-0.2,1.5c-0.3,0.6-0.8,0.9-1.5,0.9h-9.1c-1.2,0-2.2,0.5-3,1.6c-0.6,0.8-1.1,1.9-1.4,3.3
			c-0.2,1-0.3,1.8-0.3,2.5c0,1.8,0.4,3.4,1.2,4.8c1,1.8,2.5,2.7,4.5,2.7h8.1c0.8,0,1.3,0.3,1.5,0.9
			C306.3,149.9,306.4,150.4,306.4,151.1z"/>
		<path class="st7" d="M333.4,141.3c0,0.4,0,0.9,0,1.3c0,0.4,0,0.9,0,1.4c0,2.3-0.1,4.2-0.3,5.5c-0.2,1.4-0.5,2.6-0.8,3.7
			c-0.2,0.1-0.4,0.1-0.6,0.2c-0.5,0.1-0.9,0.2-1.3,0.2c-0.3,0-0.5,0-0.7-0.1c-0.2,0-0.4-0.1-0.6-0.3c-0.3-0.2-0.5-0.5-0.7-1
			c-0.1-0.4-0.3-0.9-0.4-1.3c-0.1-0.2-0.1-0.3-0.1-0.5s0-0.4,0-0.7c0-0.1,0-0.4,0-0.8c0-0.4,0-0.7,0-0.9c0-0.8-0.1-1.5-0.3-2
			c-0.2-0.7-0.7-1.3-1.4-1.8c-0.3-0.2-0.6-0.3-0.9-0.4c-0.3-0.1-0.6-0.1-1-0.1c-0.2,0-0.6,0-1,0s-0.7,0-0.9,0c-0.3,0-0.6,0-0.8,0
			c-0.2,0-0.5,0-0.7,0c-0.5,0-0.9,0.1-1.2,0.2c-0.3,0.2-1,0.6-2,1.3c-0.1,1.3-0.1,2.6-0.1,3.9c-0.2,1.7-0.7,3-1.6,3.9
			c-0.1,0-0.2,0.1-0.3,0.1c-0.5,0.1-1,0.2-1.4,0.2c-0.3,0-0.5,0-0.7-0.1c-0.2,0-0.3-0.1-0.5-0.2c-0.3-0.2-0.5-0.5-0.7-0.9
			s-0.3-0.7-0.4-0.8v-10.2v-10c0.2-0.5,0.4-0.9,0.5-1.2s0.3-0.5,0.6-0.7c0.3-0.2,0.6-0.3,1.1-0.3c0.4,0,0.9,0.1,1.3,0.2
			c0.1,0,0.2,0,0.3,0.1c0.5,0.3,0.8,0.7,1,1.4c0.1,0.5,0.2,1.1,0.2,2c0,0.3,0,0.6,0,0.9s0,0.6,0,0.9c0,0.6,0,1.1,0.1,1.4
			s0.2,0.7,0.4,0.9c0.6,0.8,1.2,1.4,1.8,1.7c0.5,0.2,1.1,0.4,1.7,0.4c0.2,0,0.5,0,0.7,0s0.5,0,0.7,0c0.3,0,0.5,0,0.8,0s0.5,0,0.8,0
			c0.2,0,0.5,0,0.6,0c0.2,0,0.4-0.1,0.6-0.2c0.8-0.5,1.4-1.3,1.6-2.2c0.1-0.4,0.2-1.2,0.3-2.4c0.1-1.1,0.3-1.9,0.5-2.4
			s0.3-0.9,0.4-1.2c0.2-0.5,0.4-0.8,0.7-1.1c0.2-0.1,0.3-0.2,0.6-0.2c0.2-0.1,0.5-0.1,0.7-0.1c0.4,0,0.8,0.1,1.3,0.2
			c0.1,0,0.4,0.1,0.6,0.2c0.5,1.2,0.8,2.7,1,4.5c0.1,1.3,0.2,2.9,0.2,4.9v0.3v0.3v0.2c0,0.3,0,0.5,0,0.8s0,0.5,0,0.8v0.1
			L333.4,141.3L333.4,141.3z"/>
		<path class="st7" d="M343.9,141.3c0,0.3,0,0.8,0,1.6s0,1.2,0,1.4c0,1.6-0.1,2.9-0.2,4c-0.1,1.5-0.4,2.6-0.8,3.5
			c-0.5,1-1.1,1.5-1.9,1.5c-0.5,0-0.9-0.1-1.3-0.3c-0.5-0.3-0.9-0.5-1.2-0.7v-22.2c0.1-0.1,0.5-0.3,1.2-0.6c0.4-0.2,0.9-0.3,1.3-0.3
			c0.8,0,1.4,0.5,1.9,1.6c0.4,0.9,0.6,2.1,0.8,3.8c0.1,1.2,0.2,2.6,0.2,4.1c0,0.4,0,0.8,0,1.3C343.9,140.4,343.9,140.8,343.9,141.3z
			"/>
		<path class="st7" d="M370.4,151.1c0,1-0.7,1.7-2,2.1c-0.9,0.3-2.1,0.4-3.5,0.4c-0.3,0-0.5,0-0.7,0s-0.5,0-0.7,0
			c-0.7,0-1.3,0-1.7,0c-0.5,0-0.9,0-1.3,0c-1.2,0-2.2-0.1-3-0.2c-1.1-0.2-2.1-0.6-3-1.2c-1.6-1-2.8-2.2-3.8-3.7
			c-0.9-1.5-1.4-3-1.4-4.4v-13c0-0.4,0.4-0.8,1.2-1.3c0.7-0.4,1.3-0.6,1.6-0.6c0.8,0,1.5,0.3,2,1c0.5,0.6,0.8,1.4,0.8,2.3v10.7
			c0,1.5,0.8,2.9,2.4,4c1.3,1,2.6,1.5,3.7,1.5h7.6c0.5,0,1,0.3,1.4,0.9C370.2,150,370.4,150.5,370.4,151.1z"/>
		<path class="st7" d="M396.2,151c0,1-0.8,1.8-2.3,2.2c-1,0.3-2.4,0.4-4.2,0.4c-0.3,0-0.7,0-1.2,0c-0.4,0-0.7,0-0.7,0
			c-4,0-6.7-0.3-8.1-0.8c-1.7-0.6-2.7-1.8-3.2-3.5c-0.4-1.4-0.6-4.1-0.6-8c0-4,0.2-6.7,0.6-8c0.5-1.8,1.5-3,3.1-3.6s4.3-0.9,8.2-0.9
			c0.2,0,0.5,0,1,0s1,0,1.3,0c2.3,0,3.9,0.3,4.8,0.8c0.8,0.4,1.2,1.1,1.2,1.9c0,0.6-0.1,1.1-0.2,1.3c-0.2,0.4-0.6,0.7-1.2,1h-10.6
			c-0.5,0-0.9,0.3-1.5,1c-0.5,0.6-0.8,1.2-0.8,1.7s0.2,1.1,0.5,1.6c0.4,0.5,0.8,0.7,1.3,0.7h10.9c0.7,0.3,1.2,0.7,1.5,1.1
			c0.2,0.3,0.3,0.7,0.3,1.2v0.3c0,0.7-0.3,1.3-0.9,1.8s-1.3,0.8-2.1,0.8H384c-0.6,0-1,0.2-1.3,0.7c-0.4,0.5-0.6,1-0.6,1.6
			s0.2,1.2,0.7,1.7s1,0.8,1.5,0.8h10.6c0.6,0.3,1,0.6,1.2,1C396.2,149.9,396.2,150.4,396.2,151z"/>
		<ellipse transform="matrix(0.8984 -0.4392 0.4392 0.8984 -0.4523 166.6579)" class="st7" cx="360" cy="84.3" rx="3.3" ry="3.3"/>
		<path class="st7" d="M121.3,154.7c0,0-45.5-17.3-91.3,5.8c-7.9-18.2-1.4-46.1-1.4-46.1S83.5,121,121.3,154.7z"/>
	</g>
</g>
</svg>
