<?xml version="1.0" encoding="utf-8"?>
<!-- Generator: Adobe Illustrator 20.1.0, SVG Export Plug-In . SVG Version: 6.00 Build 0)  -->
<svg version="1.1" id="Capa_1" xmlns="http://www.w3.org/2000/svg" xmlns:xlink="http://www.w3.org/1999/xlink" x="0px" y="0px"
	 viewBox="0 0 173 58.7" style="enable-background:new 0 0 173 58.7;" xml:space="preserve">
<style type="text/css">
	.st0{fill:#009BDB;}
	.st1{fill:#005976;}
	.st2{fill:#84AF38;}
	.st3{fill:#FF9100;}
</style>
<polygon class="st0" points="111.4,14.8 81.5,12.9 73.8,26.8 77.5,41.3 96.3,41.3 111.4,39.2 "/>
<path class="st1" d="M59.8,18.9v18.9c0,0,14.5,10.8,30.5,11.5c13.7,0.6,13.2-9.2,13.2-23.4c0-6-20.2-2.3-20.2-2.3l7.8-4.7
	c0,0,7.4-10.3-0.9-10.3C81.8,8.6,59.8,18.9,59.8,18.9z"/>
<path class="st0" d="M74.3,32.4c-2.9,3-3.7,13-1.2,14.4c2.4,1.3,20.8,5.5,25.8,2.6c4.9-2.8,6.7-14.5,2.7-18.5
	C97,26.2,78.9,27.7,74.3,32.4z"/>
<path class="st0" d="M93.6,13.5c0,0-14.7,2-18.8,4.6c-2,1.2-6.3,4.9-6.1,7.2c0.1,2.1,3.2,2.9,5.3,2.6c1.8-0.3,3.7-0.9,5.1-2
	c2.9-2.2,5.9-2.5,5.9-2.5l11.5-4.5L93.6,13.5z"/>
<polygon class="st2" points="10.2,13.8 61.1,14.9 61.4,43.8 20.5,44.6 "/>
<polygon class="st3" points="161.6,11.7 110.7,12.8 110.4,41.7 151.3,42.5 "/>
</svg>
